<?xml version="1.0" standalone="no"?>
<!DOCTYPE svg PUBLIC "-//W3C//DTD SVG 20010904//EN"
 "http://www.w3.org/TR/2001/REC-SVG-20010904/DTD/svg10.dtd">
<svg version="1.0" xmlns="http://www.w3.org/2000/svg"
 width="767.000000pt" height="767.000000pt" viewBox="0 0 767.000000 767.000000"
 preserveAspectRatio="xMidYMid meet">
<metadata>
Created by potrace 1.11, written by Peter Selinger 2001-2013
</metadata>
<g transform="translate(0.000000,767.000000) scale(0.100000,-0.100000)"
fill="#000000" stroke="none">
<path d="M6337 7474 c-1 -1 -33 -4 -72 -8 -175 -14 -346 -68 -574 -183 -148
-75 -239 -113 -309 -128 -12 -3 -32 -7 -44 -10 -13 -3 -70 -8 -128 -12 -90 -5
-116 -2 -185 17 -157 44 -362 89 -500 110 -44 7 -87 13 -95 15 -8 1 -42 6 -75
9 -354 41 -756 39 -1065 -4 -36 -5 -87 -12 -115 -15 -135 -18 -400 -78 -580
-132 -153 -46 -249 -48 -409 -8 -87 22 -151 49 -321 135 -132 67 -290 129
-365 144 -14 2 -50 10 -80 16 -88 18 -259 23 -356 11 -273 -36 -530 -174 -733
-394 -161 -174 -253 -381 -286 -647 -7 -53 -7 -264 -1 -300 3 -14 7 -47 11
-75 3 -27 8 -57 10 -65 2 -8 6 -26 9 -40 27 -156 125 -394 258 -627 l58 -101
-26 -59 c-95 -214 -198 -515 -239 -703 -2 -8 -10 -44 -19 -80 -18 -79 -52
-281 -61 -370 -4 -36 -9 -73 -11 -83 -6 -32 -17 -310 -17 -432 0 -123 11 -393
19 -455 2 -19 6 -55 9 -80 31 -301 114 -623 229 -893 190 -443 484 -796 908
-1090 199 -138 452 -278 653 -361 50 -21 104 -44 121 -52 135 -60 613 -194
782 -220 20 -3 53 -9 72 -14 19 -5 51 -11 70 -14 19 -3 46 -8 60 -10 14 -3 61
-10 105 -16 44 -6 91 -13 105 -15 102 -15 171 -23 269 -30 47 -3 107 -8 135
-11 156 -15 541 -4 776 22 25 2 65 7 89 9 24 2 61 7 82 10 22 3 58 8 82 11 53
7 68 9 247 39 105 17 395 79 450 96 19 5 44 12 55 14 11 3 72 21 135 41 449
141 905 383 1232 655 213 178 395 385 537 612 192 308 334 731 386 1147 9 69
17 139 20 155 2 17 7 93 11 170 17 343 0 702 -46 975 -5 30 -12 70 -15 89 -3
19 -7 37 -9 40 -2 3 -7 23 -10 45 -21 132 -139 524 -196 651 -5 11 -37 83 -70
160 -34 77 -66 145 -70 151 -6 6 3 29 24 60 80 118 193 378 220 504 3 14 10
43 15 65 27 115 36 198 36 350 0 166 -6 218 -39 346 -67 264 -233 492 -480
660 -185 125 -399 195 -618 202 -33 1 -60 2 -61 1z"/>
</g>
</svg>
